<svg width="128" height="128" viewBox="0 0 128 128" fill="white" xmlns="http://www.w3.org/2000/svg">
<g clip-path="url(#clip0_1_71)">
<rect width="128" height="128" fill="white"/>
<path d="M119.2 11.905C127.571 21.4367 128.301 35.5964 121.04 43.5422C113.778 51.4881 101.109 50.3908 92.7381 40.8591C84.3669 31.3274 83.6362 17.1677 90.898 9.22186C98.1598 1.27601 110.828 2.37324 119.2 11.905Z" fill="#0E0E0E" stroke="black"/>
<path d="M10.9308 8.39503C21.0636 1.36887 33.6094 3.63094 38.9905 13.2995C44.3716 22.9681 40.6295 36.5243 30.4967 43.5505C20.3639 50.5767 7.81811 48.3146 2.43701 38.646C-2.94409 28.9774 0.797977 15.4212 10.9308 8.39503Z" fill="#0E0E0E" stroke="black"/>
<path d="M1.11872 67.6512L1.11921 67.6391L1.11912 67.627C0.883607 37.0252 27.6659 11.8894 61.0291 11.5695C77.7046 11.4096 94.1555 17.6815 106.464 27.8324C118.772 37.9838 126.901 51.9804 127.018 67.257C127.271 100.069 119.521 114.773 107.747 121.413C101.832 124.749 94.8425 126.087 87.199 126.604C82.0082 126.955 76.5552 126.926 70.953 126.896C68.2928 126.881 65.5989 126.867 62.8835 126.893C54.478 126.974 46.266 127.025 38.6998 126.126C31.1359 125.227 24.2566 123.382 18.5084 119.695C7.05828 112.352 -0.0992149 97.56 1.11872 67.6512Z" fill="url(#paint0_linear_1_71)" stroke="black"/>
<path d="M73 78C73 80.2091 68.0751 86.5 62 86.5C55.9249 86.5 51 80.2091 51 78C51 75.7909 55.9249 74 62 74C68.0751 74 73 75.7909 73 78Z" fill="#090808"/>
<path d="M62 113.052L67.2908 115.6L72.5801 116.244L78.5305 115.6L83.1569 113" stroke="black" stroke-width="3"/>
<line x1="62.5" y1="94" x2="62.5" y2="114.711" stroke="black" stroke-width="3"/>
<path d="M41 113.764L46.2909 116.327L51.5801 116.974L57.5305 116.327L62.1569 113.711" stroke="black" stroke-width="3"/>
<path d="M83.1653 113.052L77.8744 115.615L72.5852 116.262L66.6348 115.615L62.0084 113" stroke="black" stroke-width="3"/>
<g clip-path="url(#clip1_1_71)">
<path d="M115.354 37H8.37157C7.61407 37 7 37.4226 7 37.9439V39.8316C7 40.3529 7.61407 40.7755 8.37157 40.7755H115.354C116.112 40.7755 116.726 40.3529 116.726 39.8316V37.9439C116.726 37.4226 116.112 37 115.354 37Z" fill="#1E1E1E"/>
<path d="M61.4119 42.0026C61.4196 43.1359 61.4528 44.3375 61.4873 45.5841C61.5814 48.9687 61.6846 52.684 61.3074 56.2591C60.7711 61.3445 59.27 65.9893 55.5484 68.8729C51.7036 71.8514 49.2257 72.9176 46.4379 73.2925C45.0148 73.4837 43.4761 73.4996 41.5688 73.4631C41.0109 73.4526 40.4208 73.4373 39.7954 73.4212C38.3026 73.3829 36.6081 73.3393 34.6646 73.3393C32.7284 73.3393 31.0305 73.3825 29.528 73.4209C28.8904 73.4371 28.288 73.4524 27.7175 73.4631C25.7847 73.4996 24.2103 73.4839 22.7511 73.2921C19.8917 72.9163 17.3457 71.8474 13.5064 68.8729C9.78756 65.9916 8.35287 61.3498 7.88477 56.2634C7.56971 52.84 7.69467 49.2945 7.80974 46.0298C7.85927 44.6247 7.90696 43.2716 7.91695 42.0026H34.6646H61.4119Z" fill="#C1BFC1" stroke="black" stroke-width="5"/>
<path d="M116 42.0026C116.008 43.1359 116.041 44.3375 116.076 45.5841C116.17 48.9687 116.273 52.684 115.896 56.2591C115.36 61.3445 113.859 65.9893 110.137 68.8729C106.292 71.8514 103.814 72.9176 101.026 73.2925C99.6033 73.4837 98.0647 73.4996 96.1573 73.4631C95.5994 73.4526 95.0093 73.4373 94.3839 73.4212C92.8911 73.3829 91.1966 73.3393 89.2531 73.3393C87.3167 73.3393 85.619 73.3825 84.1166 73.4209C83.4788 73.4371 82.8764 73.4524 82.3058 73.4631C80.3733 73.4996 78.799 73.4839 77.3397 73.2921C74.4802 72.9163 71.9343 71.8474 68.095 68.8729C64.3761 65.9916 62.9415 61.3498 62.4732 56.2634C62.1583 52.84 62.2831 49.2945 62.3983 46.0298C62.4477 44.6247 62.4954 43.2716 62.5056 42.0026H89.2531H116Z" fill="#C1BFC1" stroke="black" stroke-width="5"/>
<path d="M115.354 37H8.37157C7.61407 37 7 37.4226 7 37.9439V39.8316C7 40.3529 7.61407 40.7755 8.37157 40.7755H115.354C116.112 40.7755 116.726 40.3529 116.726 39.8316V37.9439C116.726 37.4226 116.112 37 115.354 37Z" fill="#1E1E1E"/>
<path d="M61.4119 42.0026C61.4196 43.1359 61.4528 44.3375 61.4873 45.5841C61.5814 48.9687 61.6846 52.684 61.3074 56.2591C60.7711 61.3445 59.27 65.9893 55.5484 68.8729C51.7036 71.8514 49.2257 72.9176 46.4379 73.2925C45.0148 73.4837 43.4761 73.4996 41.5688 73.4631C41.0109 73.4526 40.4208 73.4373 39.7954 73.4212C38.3026 73.3829 36.6081 73.3393 34.6646 73.3393C32.7283 73.3393 31.0305 73.3825 29.5279 73.4209C28.8904 73.4371 28.288 73.4524 27.7175 73.4631C25.7847 73.4996 24.2103 73.4839 22.7511 73.2921C19.8917 72.9163 17.3457 71.8474 13.5064 68.8729C9.78756 65.9916 8.35287 61.3498 7.88477 56.2634C7.56971 52.84 7.69467 49.2945 7.80974 46.0298C7.85927 44.6247 7.90696 43.2716 7.91695 42.0026H34.6646H61.4119Z" fill="#C1BFC1" stroke="black" stroke-width="5"/>
<path d="M116 42.0026C116.008 43.1359 116.041 44.3375 116.076 45.5841C116.17 48.9687 116.273 52.684 115.896 56.2591C115.36 61.3445 113.859 65.9893 110.137 68.8729C106.292 71.8514 103.814 72.9176 101.026 73.2925C99.6033 73.4837 98.0647 73.4996 96.1573 73.4631C95.5994 73.4526 95.0093 73.4373 94.3839 73.4212C92.8911 73.3829 91.1966 73.3393 89.2531 73.3393C87.3167 73.3393 85.619 73.3825 84.1163 73.4209C83.4788 73.4371 82.8764 73.4524 82.3058 73.4631C80.3733 73.4996 78.799 73.4839 77.3397 73.2921C74.4802 72.9163 71.9343 71.8474 68.095 68.8729C64.3761 65.9916 62.9415 61.3498 62.4732 56.2634C62.1583 52.84 62.2831 49.2945 62.3983 46.0298C62.4477 44.6247 62.4954 43.2716 62.5056 42.0026H89.2531H116Z" fill="#C1BFC1" stroke="black" stroke-width="5"/>
</g>
</g>
<defs>
<linearGradient id="paint0_linear_1_71" x1="63.5404" y1="11.0454" x2="64.6573" y2="127.533" gradientUnits="userSpaceOnUse">
<stop offset="0.176456" stop-color="#077273"/>
<stop offset="0.975655" stop-color="#6E034B" stop-opacity="0.6"/>
</linearGradient>
<clipPath id="clip0_1_71">
<rect width="128" height="128" fill="white"/>
</clipPath>
<clipPath id="clip1_1_71">
<rect width="110" height="37" fill="white" transform="translate(7 37)"/>
</clipPath>
</defs>
</svg>
